<svg width="17" height="21" viewBox="0 0 17 21" fill="none" xmlns="http://www.w3.org/2000/svg">
<path fill-rule="evenodd" clip-rule="evenodd" d="M13.875 6.74833C13.4857 6.74778 13.1013 6.8346 12.75 7.00239V4.12333C12.7498 3.1979 12.2623 2.34097 11.4669 1.86789C10.6715 1.39482 9.68579 1.37552 8.8725 1.81708C8.4749 0.588348 7.24262 -0.16864 5.96686 0.0321554C4.69111 0.232951 3.75094 1.33187 3.75 2.62333V3.25239C3.39873 3.0846 3.01429 2.99778 2.625 2.99833C1.17525 2.99833 0 4.17358 0 5.62333V12.7483C0 17.3047 3.69365 20.9983 8.25 20.9983C12.8063 20.9983 16.5 17.3047 16.5 12.7483V9.37333C16.5 7.92358 15.3247 6.74833 13.875 6.74833ZM15 12.7483C15 16.4762 11.9779 19.4983 8.25 19.4983C4.52208 19.4983 1.5 16.4762 1.5 12.7483V5.62333C1.5 5.00201 2.00368 4.49833 2.625 4.49833C3.24632 4.49833 3.75 5.00201 3.75 5.62333V9.74833C3.75 10.1625 4.08579 10.4983 4.5 10.4983C4.91421 10.4983 5.25 10.1625 5.25 9.74833V2.62333C5.25 2.00201 5.75368 1.49833 6.375 1.49833C6.99632 1.49833 7.5 2.00201 7.5 2.62333V8.99833C7.5 9.41254 7.83579 9.74833 8.25 9.74833C8.66421 9.74833 9 9.41254 9 8.99833V4.12333C9 3.50201 9.50368 2.99833 10.125 2.99833C10.7463 2.99833 11.25 3.50201 11.25 4.12333V10.5611C9.08643 10.93 7.50302 12.8035 7.5 14.9983C7.5 15.4125 7.83579 15.7483 8.25 15.7483C8.66421 15.7483 9 15.4125 9 14.9983C9 13.3415 10.3431 11.9983 12 11.9983C12.4142 11.9983 12.75 11.6625 12.75 11.2483V9.37333C12.75 8.75201 13.2537 8.24833 13.875 8.24833C14.4963 8.24833 15 8.75201 15 9.37333V12.7483Z" fill="white"/>
</svg>
