<svg width="24" height="32" viewBox="0 0 24 32" fill="none" xmlns="http://www.w3.org/2000/svg">
<g clip-path="url(#clip0_27_338)">
<path fill-rule="evenodd" clip-rule="evenodd" d="M15.4163 13.8756L10.9163 10.8756C10.6861 10.722 10.39 10.7077 10.146 10.8383C9.90204 10.9689 9.74982 11.2233 9.75 11.5V17.5C9.74982 17.7767 9.90204 18.0311 10.146 18.1617C10.39 18.2923 10.6861 18.278 10.9163 18.1244L15.4163 15.1244C15.6252 14.9853 15.7507 14.751 15.7507 14.5C15.7507 14.249 15.6252 14.0147 15.4163 13.8756ZM11.25 16.0984V12.9062L13.6481 14.5L11.25 16.0984ZM20.25 7.75H3.75C2.92157 7.75 2.25 8.42157 2.25 9.25V19.75C2.25 20.5784 2.92157 21.25 3.75 21.25H20.25C21.0784 21.25 21.75 20.5784 21.75 19.75V9.25C21.75 8.42157 21.0784 7.75 20.25 7.75ZM20.25 19.75H3.75V9.25H20.25V19.75ZM21.75 23.5C21.75 23.9142 21.4142 24.25 21 24.25H3C2.58579 24.25 2.25 23.9142 2.25 23.5C2.25 23.0858 2.58579 22.75 3 22.75H21C21.4142 22.75 21.75 23.0858 21.75 23.5Z" fill="white"/>
</g>
<defs>
<clipPath id="clip0_27_338">
<rect width="24" height="24" fill="white" transform="translate(0 4)"/>
</clipPath>
</defs>
</svg>
