<svg width="17" height="36" viewBox="0 0 17 36" fill="none" xmlns="http://www.w3.org/2000/svg">
<path d="M13.0767 15.5155V19.6064H0.957386V15.5155H13.0767ZM3.73153 35.1519V14.0965C3.73153 12.6732 4.00852 11.4928 4.5625 10.5553C5.125 9.61776 5.89205 8.91464 6.86364 8.44589C7.83523 7.97714 8.93892 7.74276 10.1747 7.74276C11.0099 7.74276 11.7727 7.80668 12.4631 7.93453C13.1619 8.06237 13.6818 8.17742 14.0227 8.2797L13.0511 12.3706C12.8381 12.3024 12.5739 12.2385 12.2585 12.1788C11.9517 12.1192 11.6364 12.0894 11.3125 12.0894C10.5114 12.0894 9.95312 12.2769 9.63778 12.6519C9.32244 13.0183 9.16477 13.534 9.16477 14.1987V35.1519H3.73153Z" fill="#FBF6FF"/>
</svg>
