<svg width="51" height="47" viewBox="0 0 51 47" fill="none" xmlns="http://www.w3.org/2000/svg">
<path d="M0.34375 12.1519C0.34375 5.52444 5.71633 0.151855 12.3438 0.151855H38.3438C44.9712 0.151855 50.3438 5.52444 50.3438 12.1519V34.1519C50.3438 40.7793 44.9712 46.1519 38.3438 46.1519H12.3438C5.71633 46.1519 0.34375 40.7793 0.34375 34.1519V12.1519Z" fill="#16A6FF"/>
<g clip-path="url(#clip0_2_2050)">
<path d="M39.1664 19.5145C39.379 20.9823 39.5797 23.6922 38.5641 26.8002C38.1684 28.0125 36.6744 32.3684 32.2338 35.0664C28.1356 37.5623 22.6852 37.9485 18.0615 35.5239C17.4356 35.1971 12.0737 32.2674 10.6742 25.8909C9.31605 19.7166 12.2155 12.8053 18.0615 9.72701C23.2344 7.00528 29.0509 8.17598 32.6826 10.4877C33.7514 11.1651 34.5486 11.8961 35.0978 12.4606L35.5879 12.9538L30.9169 17.6545L30.6512 17.387C28.4368 14.9862 25.065 14.1127 22.1301 15.1883C18.5516 16.4957 16.8864 20.2454 17.0813 23.3832C17.1049 23.7932 17.4001 27.5192 20.5476 29.5278C22.8742 31.0135 25.3071 30.6332 26.0511 30.5143C26.5826 30.4311 28.9919 29.9973 30.9524 27.9352C31.6137 27.234 32.0448 26.5446 32.3105 26.0395H24.3977V19.2114H39.3435" fill="#FDFCEF"/>
</g>
<defs>
<clipPath id="clip0_2_2050">
<rect width="29" height="29" fill="white" transform="translate(10.3438 8.15186)"/>
</clipPath>
</defs>
</svg>
