<svg width="51" height="47" viewBox="0 0 51 47" fill="none" xmlns="http://www.w3.org/2000/svg">
<path d="M0.343506 12.1519C0.343506 5.52444 5.71609 0.151855 12.3435 0.151855H38.3435C44.9709 0.151855 50.3435 5.52444 50.3435 12.1519V34.1519C50.3435 40.7793 44.9709 46.1519 38.3435 46.1519H12.3435C5.71609 46.1519 0.343506 40.7793 0.343506 34.1519V12.1519Z" fill="url(#paint0_linear_2_2050)"/>
<g clip-path="url(#clip0_2_2050)">
<path d="M39.1664 19.5143C39.379 20.9821 39.5797 23.6919 38.5641 26.7999C38.1684 28.0122 36.6744 32.3682 32.2338 35.0661C28.1356 37.562 22.6852 37.9483 18.0615 35.5237C17.4356 35.1968 12.0737 32.2671 10.6742 25.8907C9.31605 19.7163 12.2155 12.805 18.0615 9.72676C23.2344 7.00504 29.0509 8.17574 32.6826 10.4874C33.7514 11.1649 34.5486 11.8958 35.0978 12.4604L35.5879 12.9536L30.9169 17.6542L30.6512 17.3868C28.4368 14.986 25.065 14.1124 22.1301 15.188C18.5516 16.4954 16.8864 20.2452 17.0813 23.3829C17.1049 23.7929 17.4001 27.519 20.5476 29.5276C22.8742 31.0132 25.3071 30.6329 26.0511 30.5141C26.5826 30.4309 28.9919 29.997 30.9524 27.935C31.6137 27.2337 32.0448 26.5444 32.3105 26.0393H24.3977V19.2112H39.3435" fill="white"/>
</g>
<defs>
<linearGradient id="paint0_linear_2_2050" x1="25.3435" y1="0.151855" x2="25.3435" y2="46.1519" gradientUnits="userSpaceOnUse">
<stop stop-color="#38E07A"/>
<stop offset="1" stop-color="#38E07A"/>
</linearGradient>
<clipPath id="clip0_2_2050">
<rect width="29" height="29" fill="white" transform="translate(10.3435 8.15186)"/>
</clipPath>
</defs>
</svg>
