<svg width="266" height="314" viewBox="0 0 266 314" fill="none" xmlns="http://www.w3.org/2000/svg">
<g clip-path="url(#clip0_134_1439)">
<path d="M205.484 61.9911L180.495 88.6793C179.3 89.95 178.596 91.7426 178.539 93.6371C178.478 95.4505 179.016 97.2223 180.035 98.5783C178.693 99.2222 177.343 99.7227 176.004 100.04C162.776 103.215 148.55 95.9093 137.619 97.8626C136.908 97.9938 136.223 98.1465 135.548 98.2821C133.67 97.7142 131.718 97.2395 129.643 96.8666C128.146 96.5998 126.638 96.4894 125.138 96.4894C120.83 96.5023 116.533 97.3413 112.265 98.1122C108.003 98.8917 103.789 99.6202 99.8156 99.6202C97.7261 99.6202 95.7087 99.4252 93.7703 98.9512C91.6959 98.4679 89.4738 97.383 87.2191 95.8786C87.3983 95.1623 87.4845 94.3994 87.4632 93.6371C87.3988 91.7433 86.6881 89.9506 85.4994 88.6793L60.5115 61.9911C45.7506 48.7112 -6.96833 132.512 0.771127 142.47C8.49656 152.428 22.4356 167.357 22.4356 167.357C23.5806 168.666 25.1205 169.394 26.7217 169.353C28.3193 169.315 29.8373 168.522 30.9362 167.153L40.3449 155.428C40.4742 155.602 40.6067 155.767 40.722 155.945C41.5294 157.047 42.1471 158.149 42.3913 158.763C43.4465 161.412 46.135 167.87 49.7182 175.095C51.5127 178.705 53.5306 182.506 55.6949 186.133C56.7937 187.956 57.9206 189.748 59.0911 191.443C55.9178 196.079 55.9391 202.885 59.3997 207.49C63.2624 212.643 69.9285 213.113 74.29 208.55L74.5918 208.232C72.7143 212.652 73.1735 218.161 76.1135 222.085C79.9763 227.229 86.6387 227.703 91.0002 223.14L92.7126 221.301C90.3684 225.839 90.6885 231.84 93.8296 236.026C97.6918 241.162 104.354 241.637 108.713 237.09L111.354 234.267C108.87 238.844 109.126 244.975 112.331 249.239C116.193 254.383 122.86 254.862 127.218 250.299L131.475 245.976C131.888 246.205 132.272 246.412 132.642 246.611L135.557 248.62L135.532 248.595C136.978 249.62 138.497 250.451 140.062 251.031C141.631 251.612 143.254 251.951 144.905 251.951C146.7 251.951 148.534 251.544 150.232 250.646C151.952 249.756 153.527 248.375 154.83 246.629C156.396 244.552 157.429 242.116 157.961 239.577C159.511 240.243 161.137 240.577 162.75 240.577C164.699 240.577 166.644 240.102 168.453 239.161C170.259 238.221 171.943 236.809 173.332 234.958C175.055 232.67 176.143 229.945 176.613 227.123C177.532 227.343 178.469 227.466 179.409 227.466C181.351 227.466 183.301 227 185.11 226.051C186.919 225.114 188.596 223.699 189.981 221.851C191.863 219.343 192.993 216.313 193.373 213.211C193.775 213.253 194.181 213.27 194.58 213.27C196.917 213.27 199.21 212.677 201.328 211.618C203.45 210.55 205.413 208.999 207.004 206.902C208.469 204.931 209.589 202.634 210.382 200.16C211.168 197.677 211.634 195.028 211.642 192.312C211.642 191.321 211.577 190.32 211.426 189.329C219.557 178.659 223.854 160.886 225.714 156.225C225.775 156.072 225.839 155.916 225.915 155.758L235.065 167.153C236.156 168.522 237.674 169.314 239.272 169.353C240.88 169.394 242.42 168.666 243.565 167.357C243.565 167.357 257.504 152.428 265.233 142.47C272.959 132.512 220.248 48.7112 205.484 61.9911ZM202.486 196.643C202.027 198.092 201.351 199.422 200.688 200.295V200.287C200.081 201.108 199.133 201.905 198.031 202.464C196.925 203.015 195.68 203.316 194.578 203.316C193.856 203.316 193.192 203.185 192.657 202.973C192.622 202.956 192.593 202.943 192.56 202.931L180.532 189.226C178.855 187.319 176.184 187.379 174.569 189.353C172.95 191.332 172.997 194.485 174.673 196.392L184.376 207.447C184.412 207.557 184.444 207.663 184.491 207.774C184.897 208.71 185.098 209.761 185.098 210.803C185.09 212.405 184.635 213.956 183.669 215.244C183.098 216.007 182.434 216.558 181.705 216.939C180.984 217.32 180.194 217.516 179.408 217.516C178.048 217.507 176.73 216.964 175.632 215.82L175.384 215.558C175.341 215.499 175.309 215.43 175.262 215.363L164.715 202.371C163.107 200.379 160.433 200.311 158.753 202.209C157.07 204.108 157.012 207.269 158.624 209.252L167.562 220.278C167.584 220.316 167.606 220.362 167.623 220.396C168.166 221.456 168.446 222.676 168.446 223.9C168.446 225.507 167.986 227.062 167.017 228.354C166.45 229.108 165.782 229.659 165.053 230.049C164.328 230.422 163.542 230.609 162.749 230.609C161.395 230.609 160.074 230.066 158.979 228.927L158.817 228.77L155.551 225.677L150.213 218.982C148.615 216.986 145.948 216.893 144.254 218.778C142.56 220.66 142.477 223.821 144.074 225.817L149.147 232.169C149.667 233.211 149.944 234.389 149.944 235.584C149.94 237.177 149.481 238.737 148.519 240.017C147.941 240.792 147.388 241.241 146.817 241.543C146.25 241.835 145.643 241.992 144.904 241.996C144.233 241.996 143.457 241.856 142.6 241.534C141.734 241.212 140.805 240.712 139.836 240.042L139.81 240.016L138.327 238.999C142.452 234.405 142.771 226.749 138.984 221.702C135.172 216.634 128.635 216.117 124.274 220.481L125.063 219.642C129.418 215.087 129.82 207.218 125.961 202.074C122.098 196.929 115.432 196.455 111.077 201.014L108.496 203.764C110.984 199.201 110.726 193.056 107.517 188.793C103.658 183.648 96.9987 183.169 92.6336 187.733L89.2052 191.42C90.8132 187.115 90.2755 181.899 87.4575 178.144C83.6016 172.995 76.9323 172.525 72.574 177.08L65.3083 184.682C64.3966 183.33 63.4811 181.885 62.5839 180.385C59.6117 175.402 56.8187 169.842 54.607 165.079C52.3886 160.316 50.7376 156.333 50.0159 154.515C49.6356 153.561 49.1826 152.689 48.6948 151.85C47.9342 150.54 47.0614 149.324 46.1678 148.176L81.857 103.703C85.0162 105.97 88.4155 107.822 92.0839 108.712C94.6977 109.338 97.2855 109.567 99.8166 109.567C104.637 109.563 109.272 108.728 113.558 107.949C114.635 107.745 115.694 107.559 116.724 107.372C113.511 109.991 110.395 113.097 107.075 116.746C97.6305 127.157 89.4707 139.874 84.9513 145.654C80.4283 151.425 88.8358 161.443 102.214 156.849C115.596 152.264 121.362 140.484 121.362 140.484L138.154 133.369L154.825 137.874L195.124 180.698L202.084 188.647L202.224 188.783C202.497 189.088 202.712 189.444 202.899 190.02C203.086 190.597 203.201 191.376 203.201 192.309C203.203 193.621 202.952 195.193 202.486 196.643Z" fill="black"/>
</g>
<defs>
<clipPath id="clip0_134_1439">
<rect width="266" height="314" fill="white"/>
</clipPath>
</defs>
</svg>
