<svg width="126" height="103" viewBox="0 0 126 103" fill="none" xmlns="http://www.w3.org/2000/svg">
<path d="M98.89 55.5252C102.702 51.7505 105.435 46.9123 106.777 41.5648C108.119 36.2173 108.015 30.5768 106.477 25.2891C104.939 20.0015 102.029 15.2806 98.0812 11.6672C94.1332 8.05373 89.3063 5.69382 84.1535 4.85773C79.0007 4.02165 73.7302 4.74319 68.9458 6.93973C64.1613 9.13627 60.0563 12.719 57.1009 17.2775C54.1456 21.8361 52.4593 27.1862 52.2353 32.715C52.0112 38.2439 53.2585 43.7279 55.8342 48.5391L50.1872 54.1304L51.5471 64.0774L42.7769 61.5326L35.7123 68.5309L37.1183 78.4167L28.3596 75.8107L22.2862 81.8181L23.116 87.9355L17.7685 86.345L14.242 89.8442L13.7119 99.057L26.654 102.52L68.661 60.9208C73.6422 63.2713 79.1649 64.0131 84.5405 63.0536C89.9161 62.0941 94.9067 59.4758 98.89 55.5252ZM94.7411 19.2976C95.8164 20.52 96.526 22.0536 96.7802 23.7042C97.0343 25.3549 96.8215 27.0485 96.1688 28.5708C95.516 30.093 94.4526 31.3755 93.1131 32.256C91.7737 33.1365 90.2182 33.5754 88.6437 33.5172C87.0692 33.4589 85.5464 32.9062 84.2678 31.9289C82.9893 30.9516 82.0126 29.5936 81.4612 28.0268C80.9098 26.46 80.8085 24.7548 81.1702 23.1269C81.5319 21.499 82.3403 20.0216 83.4931 18.8816C85.0373 17.3546 87.0892 16.5407 89.1982 16.6187C91.3072 16.6967 93.3008 17.6602 94.7411 19.2976Z" fill="#38E07A"/>
<path d="M94.4174 19.4084C94.4174 19.4084 93.9135 18.9089 92.8833 18.2191C91.4187 17.2895 89.7085 16.8928 88.0123 17.0893C86.6375 17.2468 85.3311 17.8079 84.2396 18.7095C83.1481 19.6112 82.3145 20.8178 81.8323 22.1943C81.35 23.5707 81.2382 25.0626 81.5092 26.5028C81.7803 27.9429 82.4235 29.2745 83.367 30.3482C84.3104 31.422 85.5167 32.1956 86.8507 32.5822C88.1847 32.9689 89.5937 32.9534 90.9199 32.5375C92.2461 32.1216 93.4371 31.3217 94.3594 30.2275C95.2817 29.1332 95.8989 27.7878 96.1418 26.342C96.4531 24.5603 96.1971 22.7191 95.414 21.1091C94.8541 19.9198 94.3614 19.4441 94.4174 19.3965C94.4734 19.3489 94.5629 19.5035 94.7869 19.7533C95.1161 20.1135 95.4054 20.5125 95.6491 20.9426C96.5596 22.5829 96.9004 24.5102 96.6121 26.3896C96.445 27.5077 96.0682 28.5787 95.504 29.5392C94.9398 30.4997 94.1998 31.3302 93.3278 31.9812C92.4558 32.6323 91.4696 33.0908 90.4276 33.3295C89.3857 33.5681 88.3092 33.5822 87.2621 33.3707C85.575 33.0422 84.0323 32.1454 82.8626 30.8131C81.6929 29.4807 80.9582 27.7837 80.7674 25.9733C80.6419 24.8499 80.7298 23.7111 81.0262 22.6244C81.3225 21.5377 81.8211 20.5253 82.4925 19.647C83.1639 18.7686 83.9944 18.0424 84.9348 17.5111C85.8753 16.9798 86.9065 16.6544 87.9675 16.5541C89.7573 16.3786 91.5483 16.8752 93.0289 17.9575C93.4386 18.2369 93.8146 18.5683 94.1487 18.9446C94.4174 19.2538 94.4846 19.3965 94.4174 19.4084Z" fill="#BA68C8"/>
<path d="M98.6883 55.0805C98.6883 55.0805 98.5624 55.2272 98.2878 55.4841L97.0748 56.707C95.4305 58.1381 93.6419 59.3687 91.7423 60.3759C88.1267 62.227 84.1783 63.2173 80.1697 63.2785C76.1611 63.3397 72.1879 62.4704 68.5243 60.7306H68.7532L27.1118 102.385L26.9974 102.52H26.8257L13.9751 99.0707L13.7119 99.0096V98.7161C13.8721 95.8421 14.0438 92.6991 14.2269 89.5071V89.2136L14.3184 89.1158L17.9001 85.5447L18.0259 85.4102H18.209L23.5186 87L23.0953 87.3914C22.8321 85.4958 22.5574 83.4167 22.2714 81.2765V81.0931L22.3972 80.9708L28.4277 74.9538L28.5651 74.807H28.7481L37.4449 77.4119L37.0215 77.8155C36.5981 74.6602 36.1404 71.2849 35.6826 67.8728V67.6771L35.82 67.5548L37.6737 65.6959L42.8346 60.5594L42.9719 60.4126H43.155L51.8632 63.0176L51.4283 63.4211C50.9782 60.0702 50.532 56.7559 50.0895 53.4784V53.2949L50.2153 53.1604L55.8225 47.5714L55.7653 48.0117C53.5955 43.8921 52.3681 39.2824 52.1836 34.559C52.0767 32.2769 52.2304 29.9894 52.6413 27.7471C53.0162 25.5421 53.6307 23.3914 54.4722 21.3387C56.5947 16.1471 60.0616 11.7121 64.4643 8.55637C68.867 5.40065 74.022 3.65571 79.3218 3.52718C84.6216 3.39866 89.8454 4.89191 94.3775 7.83095C98.9096 10.77 102.561 15.0324 104.902 20.1157C107.097 24.9116 108.034 30.254 107.614 35.5741C107.324 39.5398 106.272 43.3991 104.524 46.911C104.353 47.2779 104.181 47.6204 104.009 47.9628L103.449 48.8922C103.071 49.4915 102.762 50.1152 102.396 50.5677C101.652 51.5216 101.08 52.3777 100.519 53.0136L99.146 54.6402L98.6997 55.0805C98.6997 55.0805 98.8256 54.9093 99.1002 54.5913L100.336 53.1849C100.874 52.5734 101.48 51.7051 102.156 50.7389C102.499 50.2375 102.796 49.6505 103.163 49.0635C103.346 48.7577 103.529 48.452 103.712 48.1218L104.215 47.0822C105.906 43.6065 106.924 39.8026 107.21 35.8973C107.496 31.992 107.044 28.0651 105.88 24.3506C104.716 20.636 102.865 17.2098 100.436 14.2759C98.0077 11.3421 95.0513 8.96064 91.7434 7.27345C88.4355 5.58627 84.8437 4.62786 81.182 4.45531C77.5203 4.28276 73.8635 4.89959 70.4295 6.26908C66.9955 7.63856 63.8546 9.73268 61.1937 12.4267C58.5328 15.1207 56.4065 18.3595 54.9413 21.9502C54.1254 23.958 53.5265 26.0588 53.1562 28.2118C52.7649 30.4032 52.619 32.6365 52.7214 34.8648C52.9166 39.4607 54.12 43.9431 56.2344 47.9506L56.3603 48.1952L56.1658 48.3908L50.5701 53.9798L50.6731 53.6618C51.1156 56.9231 51.5618 60.2414 52.0119 63.6168L52.092 64.1672L51.5771 64.0204L42.8803 61.4155L43.2122 61.3299L38.0513 66.4663L36.209 68.2886L36.312 67.9584C36.7697 71.3704 37.2275 74.7581 37.6509 77.9011L37.7309 78.4637L37.216 78.3169L28.5193 75.6998L28.8397 75.6142C26.7685 77.6932 24.7087 79.7356 22.8092 81.6312L22.9236 81.3132C23.1983 83.4045 23.4729 85.4835 23.7361 87.4281L23.8047 87.9662L23.3127 87.8194L18.0145 86.2295L18.3235 86.144L14.8104 89.6416L14.9135 89.4093C14.7304 92.6012 14.5473 95.7443 14.3871 98.6182L14.1468 98.2636L26.9974 101.725L26.7113 101.81L68.4785 60.3026L68.5815 60.2047H68.7074C72.32 61.9421 76.2408 62.8262 80.2023 62.7967C84.1637 62.7671 88.0726 61.8246 91.6622 60.0335C93.556 59.0693 95.3508 57.897 97.0176 56.5358L98.2649 55.4229L98.6883 55.0805Z" fill="#38E07A"/>
<path d="M97.8955 51.5156C101.704 47.7423 104.435 42.9059 105.777 37.5604C107.118 32.2148 107.015 26.576 105.479 21.2898C103.943 16.0036 101.037 11.2836 97.0935 7.6703C93.1497 4.05701 88.3277 1.69647 83.1796 0.859005C78.0314 0.0215392 72.7653 0.740996 67.9843 2.93498C63.2032 5.12897 59.1005 8.7088 56.1459 13.2646C53.1912 17.8203 51.5041 23.1678 51.2778 28.6948C51.0514 34.2217 52.2949 39.7047 54.8659 44.5158L49.2323 50.096L50.5802 60.0573L41.8246 57.4385L34.7739 64.4505L36.1219 74.3996L27.3662 71.793L21.2948 77.8138L22.1128 83.9325L16.7787 82.3539L13.2419 85.8538L12.7119 95.0686L25.6496 98.5195L67.6423 56.9123C72.6252 59.276 78.154 60.0248 83.5358 59.0647C88.9176 58.1047 93.9129 55.4786 97.8955 51.5156ZM93.7942 15.2806C94.8691 16.5032 95.5785 18.0371 95.8325 19.6881C96.0865 21.3391 95.8738 23.0331 95.2213 24.5556C94.5688 26.0782 93.5057 27.361 92.1667 28.2416C90.8277 29.1223 89.2728 29.5613 87.6988 29.503C86.1249 29.4448 84.6025 28.8919 83.3244 27.9144C82.0463 26.9369 81.0699 25.5787 80.5187 24.0116C79.9675 22.4445 79.8663 20.7389 80.2279 19.1107C80.5895 17.4825 81.3976 16.0047 82.55 14.8645C83.3136 14.1068 84.2104 13.5164 85.189 13.1271C86.1677 12.7379 87.209 12.5574 88.2533 12.5961C89.2977 12.6347 90.3246 12.8917 91.2753 13.3524C92.2261 13.813 93.082 14.4682 93.7942 15.2806Z" fill="#38E07A"/>
<path d="M93.4218 15.5553C93.4218 15.5553 92.9192 15.0236 91.8919 14.2894C90.4459 13.2673 88.7403 12.8218 87.0455 13.0236C85.6781 13.194 84.3795 13.7923 83.2949 14.7515C82.2102 15.7107 81.3824 16.993 80.904 18.4551C80.4255 19.9171 80.3153 21.5012 80.5857 23.0302C80.856 24.5592 81.4962 25.9728 82.4347 27.1129C83.3733 28.253 84.5731 29.0747 85.9001 29.486C87.227 29.8973 88.6287 29.8821 89.9484 29.442C91.2682 29.0019 92.4538 28.1543 93.3729 26.994C94.292 25.8337 94.9082 24.4065 95.1526 22.8719C95.4605 20.974 95.2011 19.014 94.4156 17.3021C93.8573 16.0363 93.3771 15.53 93.4218 15.4793C93.4664 15.4287 93.5669 15.5932 93.8014 15.8591C94.1258 16.2432 94.4105 16.6679 94.6501 17.1249C95.5616 18.874 95.9016 20.9307 95.6105 22.9352C95.4422 24.1232 95.0659 25.261 94.5036 26.2814C93.9413 27.3019 93.2044 28.1845 92.3364 28.877C91.4684 29.5695 90.4869 30.058 89.4497 30.3137C88.4125 30.5694 87.3406 30.587 86.2973 30.3657C84.6155 30.0349 83.0723 29.0993 81.8958 27.6973C80.7193 26.2953 79.9722 24.5013 79.7647 22.5807C79.6427 21.3855 79.7327 20.1748 80.0294 19.0196C80.3261 17.8644 80.8236 16.7881 81.4926 15.8541C82.1616 14.92 82.9885 14.147 83.9249 13.5804C84.8613 13.0139 85.8881 12.6653 86.945 12.5552C88.7312 12.371 90.5178 12.9042 91.9924 14.0616C92.4034 14.3552 92.7788 14.7084 93.1091 15.1122C93.3436 15.3907 93.4441 15.5426 93.4218 15.5553Z" fill="#BA68C8"/>
<path d="M97.7483 52.0474C97.7483 52.0474 97.6223 52.1946 97.3589 52.452L96.1449 53.6045C94.4966 55.0353 92.707 56.2687 90.8079 57.2826C87.1871 59.1377 83.2336 60.1302 79.2199 60.1916C75.2061 60.2529 71.2277 59.3818 67.5589 57.6382H67.788L26.123 99.3969L25.9971 99.5195H25.8367L12.9639 96.0621L12.7119 95.9885V95.7066C12.8723 92.8254 13.0555 89.6745 13.2273 86.4745V86.3274L13.3189 86.2416L16.8349 82.7228L16.9723 82.588H17.1556L22.4581 84.1696L22.0344 84.5742C21.7824 82.6738 21.4961 80.5895 21.2098 78.444V78.2601L21.3472 78.1252L27.3714 72.1054L27.5088 71.9583L27.7035 72.0195L36.4076 74.631L35.9724 75.0356L34.6324 65.0925V64.8963L34.7584 64.7614L36.6252 62.9101L41.7789 57.7608L41.9163 57.6136L42.111 57.6749L50.8151 60.2864L50.3798 60.691C49.9294 57.3317 49.4827 54.0091 49.0399 50.7233V50.5271L49.1773 50.4046L54.7892 44.8016L54.7204 45.2429C52.5488 41.113 51.3205 36.4917 51.1357 31.7565C51.0343 29.4688 51.1881 27.1763 51.5938 24.9275C51.9711 22.7176 52.586 20.5617 53.4263 18.5031C56.0321 12.0177 60.7088 6.73652 66.6193 3.60479C72.5299 0.47306 79.2885 -0.304874 85.6859 1.4102C92.0832 3.12526 97.7017 7.2214 101.536 12.9656C105.37 18.7098 107.17 25.7272 106.613 32.7619C106.321 36.7372 105.268 40.6058 103.52 44.1272L103.005 45.1816L102.444 46.1134C102.066 46.7142 101.757 47.3395 101.402 47.7931C100.657 48.7494 100.085 49.6076 99.5234 50.2452L98.1949 51.6061C97.9086 51.9126 97.7483 52.0597 97.7483 52.0597C97.7483 52.0597 97.8857 51.8758 98.1605 51.557L99.386 50.1594C99.9243 49.5463 100.531 48.6758 101.207 47.7073C101.551 47.2169 101.86 46.6284 102.226 46.0276L102.776 45.0958L103.268 44.0414C104.961 40.5401 105.971 36.7065 106.235 32.7742C106.721 25.8887 104.917 19.041 101.141 13.4427C97.3654 7.84431 91.8614 3.8563 85.6031 2.18433C79.3448 0.512366 72.7358 1.26423 66.9455 4.30688C61.1552 7.34952 56.557 12.4868 53.9646 18.8096C53.1516 20.8229 52.556 22.929 52.1894 25.0869C51.7917 27.2829 51.6455 29.5227 51.7542 31.7565C51.9461 36.363 53.1465 40.8566 55.2587 44.8751L55.3961 45.1203L55.2015 45.3165L49.5896 50.9195L49.6927 50.6007C50.1432 53.8701 50.5898 57.1927 51.0327 60.5684L51.1128 61.1324L50.6089 60.973L41.8705 58.3493L42.1912 58.2634L37.0375 63.425L35.1707 65.2764L35.2737 64.9576C35.7433 68.3782 36.19 71.7621 36.6137 74.9253L36.6939 75.4892L36.19 75.3299L27.4744 72.7184L27.8066 72.6326L21.771 78.6524L21.8741 78.3459C22.1489 80.4424 22.4353 82.5144 22.6872 84.4148L22.7559 84.9665L22.2635 84.8194L16.9609 83.2255L17.2701 83.1397L13.7655 86.6462L13.8686 86.401C13.6854 89.6009 13.5021 92.7641 13.3303 95.633L13.0898 95.2774L25.9512 98.7594L25.6649 98.8452L67.4673 57.2336L67.5704 57.1355L67.6963 57.1968C71.3142 58.9299 75.2374 59.8114 79.2008 59.7818C83.1643 59.7522 87.0756 58.8121 90.6705 57.0251C92.5683 56.0563 94.3682 54.8813 96.0418 53.5187L97.2787 52.403L97.7483 52.0474Z" fill="#BA68C8"/>
<path d="M94.8079 49.4337C96.1654 47.8896 97.4042 46.2322 98.5121 44.4774C99.7662 42.3976 100.718 40.1288 101.336 37.7475C102.181 34.5914 102.449 31.2924 102.125 28.0292C101.749 24.0858 100.508 20.2912 98.5007 16.9504C96.1887 13.1258 92.961 10.0233 89.1487 7.96097C87.1066 6.83126 84.9122 6.04448 82.6434 5.62858C81.4767 5.39699 80.2963 5.25087 79.1107 5.19126C77.8999 5.17146 76.6892 5.23639 75.4865 5.38563C70.4354 6.00118 65.7033 8.32143 61.9849 12.0056C58.2665 15.6898 55.7579 20.5438 54.8275 25.8548C54.6034 27.1187 54.4583 28.397 54.3931 29.6813C54.3695 30.9433 54.4268 32.2056 54.5645 33.4593C54.795 35.8936 55.3812 38.2749 56.3023 40.5172C57.9716 44.7035 60.6636 48.3397 64.0995 51.0494C67.0903 53.4155 70.565 54.9972 74.2403 55.6656C77.2704 56.2362 80.3755 56.1826 83.3865 55.5077C85.6656 55.0108 87.8621 54.155 89.9032 52.9688C91.6269 51.9222 93.2673 50.7277 94.8079 49.3973C94.8079 49.3973 94.7279 49.5066 94.5335 49.6888L93.676 50.5149C93.2168 50.9624 92.7235 51.3687 92.2012 51.7297C91.5141 52.2824 90.7879 52.7779 90.029 53.2117C87.9831 54.4568 85.7701 55.3621 83.4666 55.8964C77.9073 57.2158 72.0887 56.4256 67.0203 53.663C61.952 50.9005 57.9537 46.3398 55.7193 40.7723C54.7654 38.4569 54.156 35.9979 53.9129 33.4836C53.5852 30.9171 53.6586 28.3108 54.1301 25.7697C55.0795 20.3049 57.6566 15.3089 61.4812 11.5185C65.3058 7.72809 70.1755 5.34389 75.3722 4.71749C77.82 4.38274 80.3029 4.473 82.7235 4.98475C85.0523 5.42932 87.3038 6.24859 89.4002 7.41432C93.3042 9.54271 96.6005 12.7432 98.9466 16.6831C100.799 19.8116 102.003 23.323 102.48 26.984C102.957 30.6451 102.696 34.3721 101.713 37.9176C101.054 40.3273 100.047 42.6139 98.7293 44.6961C98.2763 45.4686 97.7639 46.2 97.1973 46.8827C96.8168 47.4122 96.3962 47.9079 95.9397 48.3647L95.1051 49.2151C94.9222 49.3487 94.8193 49.4459 94.8079 49.4337Z" fill="#38E07A"/>
<path d="M94.4011 28.6773C94.3411 28.6773 95.0008 28.0534 95.8045 26.7695C96.9349 24.937 97.4165 22.7774 97.1719 20.6381C97.0058 19.0707 96.4471 17.5706 95.5476 16.2766C94.6482 14.9825 93.437 13.9363 92.0261 13.2347C90.3777 12.3908 88.5143 12.0606 86.6764 12.2868C85.2332 12.4609 83.8501 12.9677 82.6359 13.7673C81.4218 14.567 80.4099 15.6376 79.6796 16.895C78.9494 18.1523 78.5209 19.5621 78.4279 21.0132C78.3349 22.4643 78.5799 23.9173 79.1436 25.2576C79.8038 26.7999 80.8538 28.1437 82.1903 29.1573C83.3672 30.0342 84.7296 30.6294 86.1726 30.8971C88.2913 31.2878 90.4799 30.9539 92.3859 29.9492C93.7293 29.2413 94.3411 28.6173 94.4011 28.6773C94.461 28.7373 94.2691 28.8573 93.9693 29.1333C93.5321 29.5486 93.0445 29.9074 92.5179 30.2012C90.8754 31.1527 88.9918 31.606 87.0964 31.5059C85.201 31.4058 83.3756 30.7565 81.8424 29.6372C80.3086 28.5273 79.122 27.0038 78.4211 25.2447C77.7202 23.4855 77.534 21.5632 77.8841 19.7021C78.2709 17.5932 79.327 15.6652 80.8956 14.2041C82.4643 12.743 84.462 11.8266 86.5924 11.5909C88.569 11.3521 90.5716 11.7159 92.338 12.6348C93.9315 13.466 95.2734 14.709 96.2243 16.2345C97.2264 17.8447 97.7424 19.71 97.7105 21.6065C97.6786 23.503 97.1001 25.3499 96.0444 26.9255C95.7011 27.4281 95.2983 27.8874 94.8449 28.2933C94.581 28.5693 94.413 28.7013 94.4011 28.6773Z" fill="#BA68C8"/>
<path d="M22.7132 97.5178C22.5885 97.3686 31.8785 87.5707 43.4797 75.746C55.0808 63.9213 64.586 54.372 64.7107 54.5213C64.8353 54.6705 55.5453 64.4684 43.9441 76.2931C32.343 88.1178 22.8378 97.667 22.7132 97.5178Z" fill="#BA68C8"/>
<path d="M27.6671 38.4257L28.0133 37.5195L28.4614 38.3522C28.8275 39.0174 29.343 39.5439 29.9482 39.8706L30.7119 40.2746L30.0195 40.8257C29.4614 41.2625 29.0195 41.8831 28.7465 42.6134L28.4105 43.5195L27.9523 42.6869C27.5879 42.0199 27.0718 41.4928 26.4655 41.1685L25.7119 40.7644L26.4044 40.2134C26.9622 39.7796 27.4014 39.1578 27.6671 38.4257Z" fill="#9EB8A8"/>
<path d="M1.89085 31.9722L2.09086 31.5195L2.36455 31.9301C2.58134 32.2656 2.8927 32.5293 3.25929 32.688L3.71191 32.8985L3.29087 33.1722C2.96012 33.3898 2.69744 33.6962 2.53297 34.0564L2.33297 34.5195L2.05928 34.0985C1.84248 33.763 1.53116 33.4992 1.16457 33.3406L0.711914 33.1301L1.12245 32.8669C1.45598 32.645 1.72184 32.3354 1.89085 31.9722Z" fill="#9EB8A8"/>
<path d="M82.8909 78.123L83.0909 77.5195L83.3645 78.0809C83.5899 78.5181 83.8988 78.867 84.2593 79.0915L84.7119 79.3581L84.3014 79.723C83.9659 80.0121 83.7022 80.4272 83.5435 80.916L83.333 81.5195L83.0593 80.9722C82.8432 80.526 82.5366 80.1707 82.1751 79.9476L81.7119 79.6809L82.133 79.316C82.4685 79.027 82.7322 78.6118 82.8909 78.123Z" fill="#9EB8A8"/>
<path d="M122.07 54.4257L122.474 53.5195L123.024 54.3522C123.46 55.0197 124.08 55.5468 124.808 55.8706L125.712 56.2746L124.881 56.8257C124.214 57.2627 123.688 57.8835 123.366 58.6134L122.95 59.5195L122.413 58.6869C121.97 58.0248 121.352 57.4991 120.628 57.1685L119.712 56.7644L120.543 56.2134C121.213 55.7766 121.743 55.156 122.07 54.4257Z" fill="#9EB8A8"/>
<path d="M117.246 21.0347L117.857 19.5195L118.676 20.9135C119.333 22.0218 120.26 22.9002 121.348 23.4468L122.712 24.1135L121.457 25.0226C120.462 25.7602 119.672 26.7932 119.177 28.0044L118.566 29.5195L117.748 28.1256C117.091 27.0173 116.164 26.1389 115.076 25.5923L113.712 24.9135L114.966 24.0044C115.964 23.274 116.754 22.2442 117.246 21.0347Z" fill="#9EB8A8"/>
<path d="M19.6318 11.0365L20.3114 9.51953L21.2216 10.903C21.9493 12.0158 22.9814 12.8962 24.1949 13.4394L25.7119 14.119L24.3284 15.0292C23.2124 15.7533 22.3311 16.7864 21.792 18.0025L21.1124 19.5195L20.2022 18.136C19.4728 17.0201 18.4359 16.1392 17.2168 15.5996L15.7119 14.92L17.0954 14.0098C18.2082 13.2821 19.0885 12.2501 19.6318 11.0365Z" fill="#9EB8A8"/>
</svg>
