<svg width="285" height="268" viewBox="0 0 285 268" fill="none" xmlns="http://www.w3.org/2000/svg">
<path d="M218.22 200.771C255.085 163.906 255.085 104.135 218.22 67.2703C181.355 30.4051 121.585 30.4051 84.7195 67.2703C47.8543 104.135 47.8543 163.906 84.7195 200.771C121.585 237.636 181.355 237.636 218.22 200.771Z" fill="#EFF4C6"/>
<path d="M101.493 233.803C101.493 233.803 100.983 190.613 130.153 164.703C143.383 152.953 173.973 168.103 144.623 188.043C132.493 196.283 114.003 203.623 101.493 233.803Z" fill="#9EB8A8" fill-opacity="0.9"/>
<path d="M140.603 172.893C140.603 172.893 98.5526 200.553 100.863 249.683" stroke="#9EB8A8" stroke-width="1.3664" stroke-miterlimit="10"/>
<path opacity="0.1" d="M149.822 253.353C167.838 253.353 182.442 251.316 182.442 248.803C182.442 246.29 167.838 244.253 149.822 244.253C131.807 244.253 117.202 246.29 117.202 248.803C117.202 251.316 131.807 253.353 149.822 253.353Z" fill="black"/>
<path d="M91.7725 232.303C91.7725 232.303 90.2825 184.933 30.3925 161.523C9.75253 153.453 -20.3375 182.883 22.4325 194.983C40.1025 199.973 64.9725 201.383 91.7725 232.303Z" fill="#9EB8A8" fill-opacity="0.9"/>
<path d="M41.1201 131.622C41.6261 131.525 42.2829 131.544 43.0576 131.696C44.6044 131.999 46.5211 132.812 48.4248 134.079V134.08C50.264 135.308 51.4855 137.128 52.25 138.668C52.6305 139.434 52.8931 140.123 53.0605 140.618C53.0886 140.701 53.11 140.78 53.1328 140.851C53.0584 140.858 52.9777 140.868 52.8906 140.874C52.3694 140.91 51.6331 140.932 50.7793 140.876C49.0642 140.763 46.9136 140.335 45.0693 139.107C43.1711 137.84 41.6839 136.382 40.8086 135.069C40.3702 134.412 40.0993 133.812 39.9941 133.307C39.8894 132.805 39.9557 132.439 40.1279 132.182L40.1289 132.181C40.3024 131.921 40.6166 131.719 41.1201 131.622Z" fill="#9EB8A8" stroke="#9EB8A8"/>
<path d="M53.1389 144.291C54.3101 144.277 55.8356 144.581 57.4241 145.227H57.425C58.9476 145.842 60.1151 146.984 60.9104 147.998C61.3055 148.501 61.6033 148.965 61.801 149.302C61.8065 149.312 61.8113 149.322 61.8167 149.331C61.8064 149.334 61.7959 149.338 61.7854 149.341C61.4092 149.446 60.8733 149.575 60.2395 149.664C58.964 149.842 57.3322 149.855 55.8098 149.24C54.2209 148.599 52.9116 147.756 52.0764 146.932C51.658 146.52 51.3769 146.13 51.2297 145.792C51.0836 145.455 51.0846 145.209 51.1565 145.031V145.03C51.2293 144.849 51.4015 144.669 51.7395 144.527C52.0799 144.384 52.5523 144.298 53.1389 144.291Z" fill="#9EB8A8" stroke="#9EB8A8"/>
<path d="M56.3242 136.176C56.5002 136.103 56.7457 136.1 57.083 136.242C57.4224 136.386 57.8147 136.662 58.2314 137.076C59.0631 137.902 59.9201 139.202 60.5811 140.786C61.2093 142.304 61.2131 143.935 61.0479 145.212C60.9657 145.847 60.843 146.384 60.7412 146.761C60.7384 146.771 60.7342 146.781 60.7314 146.791C60.7223 146.786 60.7125 146.781 60.7031 146.775C60.3638 146.581 59.8965 146.289 59.3887 145.899C58.3666 145.115 57.2134 143.96 56.585 142.442C55.9289 140.858 55.6102 139.334 55.6113 138.162C55.6119 137.575 55.6929 137.102 55.8311 136.761C55.9683 136.422 56.1448 136.249 56.3232 136.176H56.3242Z" fill="#9EB8A8" stroke="#9EB8A8"/>
<path d="M57.657 152.232C59.0689 151.995 60.958 152.073 62.9792 152.541H62.9802C64.9363 152.994 66.5547 154.151 67.697 155.219C68.2655 155.751 68.7093 156.254 69.0095 156.622C69.0471 156.668 69.08 156.714 69.113 156.756C69.0648 156.779 69.0151 156.806 68.9607 156.831C68.5286 157.029 67.9087 157.284 67.1638 157.509C65.667 157.962 63.7033 158.284 61.7468 157.826H61.7449C59.7189 157.358 57.9893 156.593 56.8289 155.757C56.2479 155.338 55.8302 154.916 55.5828 154.525C55.3378 154.137 55.2791 153.813 55.3386 153.55C55.4008 153.289 55.5965 153.024 55.991 152.784C56.3872 152.543 56.9499 152.35 57.657 152.232Z" fill="#9EB8A8" stroke="#9EB8A8"/>
<path d="M65.2834 141.713C65.5409 141.637 65.8654 141.676 66.2659 141.899C66.6687 142.124 67.1115 142.518 67.5608 143.076C68.4577 144.19 69.3164 145.876 69.9026 147.874C70.4635 149.802 70.2484 151.78 69.8782 153.299C69.6939 154.054 69.4737 154.687 69.3 155.129C69.2784 155.184 69.2546 155.235 69.2346 155.284C69.1913 155.253 69.144 155.223 69.0959 155.188C68.712 154.907 68.1864 154.492 67.6252 153.953C66.5677 152.938 65.4089 151.509 64.8059 149.75L64.6926 149.394C64.1114 147.396 63.9286 145.514 64.0872 144.093C64.1665 143.381 64.3284 142.811 64.5481 142.404C64.7665 142 65.0215 141.79 65.2825 141.714L65.2834 141.713Z" fill="#9EB8A8" stroke="#9EB8A8"/>
<path d="M59.8525 163.861C59.851 163.594 59.9782 163.292 60.3047 162.969C60.6329 162.643 61.1343 162.326 61.7949 162.049C63.1142 161.494 64.9735 161.134 67.0537 161.124C69.0626 161.119 70.9043 161.873 72.2617 162.649C72.9372 163.035 73.4845 163.422 73.8613 163.711C73.9078 163.746 73.95 163.783 73.9912 163.815C73.9499 163.848 73.908 163.886 73.8613 163.923C73.4863 164.214 72.9423 164.604 72.2695 164.994C70.9169 165.778 69.0794 166.543 67.0703 166.552C64.9898 166.557 63.1283 166.213 61.8057 165.668C61.1431 165.395 60.6396 165.081 60.3096 164.758C59.9817 164.436 59.8526 164.135 59.8525 163.864V163.861Z" fill="#9EB8A8" stroke="#9EB8A8"/>
<path d="M72.2959 170.593C74.4449 170.493 76.4501 171.214 77.9365 171.979C78.6763 172.36 79.2789 172.748 79.6953 173.039C79.7601 173.084 79.8186 173.13 79.874 173.17C79.8223 173.215 79.7686 173.267 79.708 173.318C79.3206 173.648 78.7568 174.09 78.0557 174.539C76.6471 175.44 74.718 176.345 72.5693 176.444C70.3487 176.547 68.3447 176.264 66.9043 175.741C66.183 175.48 65.6268 175.166 65.2549 174.833C64.885 174.501 64.7261 174.178 64.7119 173.88C64.6977 173.582 64.8257 173.245 65.1631 172.88C65.5022 172.513 66.026 172.148 66.7197 171.82C68.1055 171.165 70.0756 170.695 72.2959 170.593Z" fill="#9EB8A8" stroke="#9EB8A8"/>
<path d="M77.0962 180.058C79.221 179.741 81.2897 180.256 82.8481 180.868C83.6238 181.172 84.2638 181.498 84.7085 181.746C84.7779 181.785 84.8413 181.824 84.9009 181.858C84.8539 181.909 84.8057 181.966 84.7505 182.023C84.3982 182.39 83.882 182.888 83.23 183.406C81.9198 184.446 80.0929 185.542 77.9683 185.859C75.7723 186.187 73.7482 186.109 72.2603 185.735C71.5153 185.548 70.9294 185.293 70.5249 184.998C70.1227 184.705 69.9316 184.398 69.8872 184.1C69.8428 183.802 69.9361 183.452 70.2349 183.054C70.5352 182.655 71.0203 182.239 71.6772 181.843C72.9893 181.051 74.9003 180.386 77.0962 180.058Z" fill="#9EB8A8" stroke="#9EB8A8"/>
<path d="M82.3936 190.844C84.5424 190.882 86.4981 191.729 87.9336 192.588C88.6478 193.015 89.2247 193.44 89.6221 193.758C89.684 193.807 89.74 193.857 89.793 193.9C89.7385 193.942 89.6818 193.991 89.6182 194.038C89.2107 194.342 88.6199 194.748 87.8916 195.151C86.4284 195.961 84.4446 196.742 82.291 196.704C80.0703 196.665 78.0883 196.256 76.6836 195.644C75.9801 195.337 75.445 194.989 75.0947 194.632C74.7473 194.278 74.6084 193.945 74.6123 193.645C74.6187 193.343 74.7697 193.013 75.1309 192.669C75.4937 192.324 76.0407 191.994 76.7539 191.711C78.1788 191.146 80.1732 190.805 82.3936 190.844Z" fill="#9EB8A8" stroke="#9EB8A8"/>
<path d="M79.2642 149.821C79.6899 149.647 80.018 149.647 80.2651 149.753C80.5125 149.86 80.7393 150.097 80.9067 150.526C81.075 150.957 81.1664 151.543 81.1587 152.259C81.1433 153.69 80.733 155.537 79.9126 157.447C79.1204 159.29 77.6982 160.681 76.4478 161.62C75.8254 162.087 75.2532 162.436 74.8384 162.667C74.7866 162.696 74.7356 162.72 74.689 162.746C74.6752 162.695 74.6587 162.641 74.644 162.584C74.5257 162.124 74.3851 161.469 74.2944 160.697C74.1123 159.144 74.14 157.155 74.9321 155.311C75.7526 153.401 76.8085 151.831 77.8345 150.833C78.3482 150.334 78.8361 149.996 79.2642 149.821Z" fill="#9EB8A8" stroke="#9EB8A8"/>
<path d="M88.4426 159.924C88.9304 159.829 89.2834 159.897 89.5295 160.066C89.7758 160.235 89.967 160.54 90.054 161.028C90.1414 161.519 90.1148 162.156 89.9573 162.906C89.6426 164.405 88.8267 166.256 87.5696 168.091C86.3533 169.86 84.5698 171.022 83.0627 171.745C82.3127 172.104 81.6401 172.351 81.1565 172.508C81.0809 172.532 81.0084 172.55 80.9426 172.57C80.9377 172.502 80.9304 172.429 80.926 172.35C80.8978 171.844 80.8864 171.128 80.9524 170.3C81.085 168.635 81.5271 166.551 82.7434 164.776L82.7444 164.777C84.0014 162.948 85.4368 161.522 86.7229 160.689C87.3668 160.272 87.9524 160.019 88.4426 159.924Z" fill="#9EB8A8" stroke="#9EB8A8"/>
<path d="M94.4189 169.595C94.9146 169.55 95.2606 169.653 95.4902 169.846C95.7164 170.038 95.8745 170.36 95.9111 170.854C95.948 171.351 95.8571 171.983 95.624 172.713C95.1585 174.173 94.1587 175.933 92.7207 177.63C91.3292 179.273 89.4343 180.249 87.8604 180.815C87.0772 181.096 86.3829 181.273 85.8857 181.378C85.8078 181.395 85.7337 181.406 85.666 181.419C85.668 181.351 85.6682 181.277 85.6719 181.199C85.6954 180.692 85.7561 179.978 85.9062 179.161C86.1891 177.62 86.7822 175.742 88.002 174.16L88.2539 173.847C89.6919 172.155 91.2645 170.882 92.6289 170.184C93.3122 169.834 93.9206 169.641 94.4189 169.595Z" fill="#9EB8A8" stroke="#9EB8A8"/>
<path d="M97.3838 180.288C97.8644 180.163 98.2203 180.21 98.4756 180.363C98.7309 180.516 98.9402 180.808 99.0576 181.291C99.1756 181.776 99.1891 182.414 99.0791 183.174C98.8594 184.69 98.1628 186.59 97.0234 188.497V188.498C95.9206 190.348 94.213 191.622 92.7549 192.438C92.029 192.844 91.373 193.132 90.9004 193.318C90.8268 193.347 90.7565 193.37 90.6924 193.394C90.6832 193.326 90.6705 193.253 90.6611 193.175C90.6012 192.67 90.5447 191.956 90.5586 191.125C90.5848 189.558 90.8607 187.608 91.8037 185.849L92.002 185.5C93.1415 183.588 94.4855 182.073 95.7168 181.161C96.3334 180.704 96.9009 180.413 97.3838 180.288Z" fill="#9EB8A8" stroke="#9EB8A8"/>
<path d="M81.1926 201.833C82.7032 201.573 84.7254 201.647 86.8918 202.141C88.9885 202.619 90.7271 203.85 91.9543 204.985C92.5652 205.55 93.0422 206.084 93.3655 206.476C93.4158 206.537 93.4594 206.597 93.5022 206.651C93.4406 206.681 93.3755 206.715 93.304 206.749C92.8429 206.962 92.1815 207.236 91.386 207.48C89.7878 207.97 87.6854 208.324 85.5833 207.846C83.4169 207.352 81.5617 206.542 80.3137 205.653C79.6888 205.207 79.2371 204.757 78.968 204.336C78.7001 203.918 78.6343 203.565 78.7004 203.275L78.6995 203.274C78.7684 202.984 78.9839 202.695 79.4065 202.435C79.8327 202.173 80.4363 201.963 81.1926 201.833Z" fill="#9EB8A8" stroke="#9EB8A8"/>
<path d="M103.737 194.911C104.233 194.888 104.573 195.007 104.792 195.21C105.013 195.415 105.158 195.746 105.174 196.243C105.19 196.742 105.072 197.369 104.808 198.088C104.281 199.526 103.207 201.241 101.696 202.875C100.238 204.45 98.3046 205.343 96.7085 205.84C95.9141 206.088 95.2127 206.235 94.7114 206.32C94.633 206.333 94.5588 206.341 94.4907 206.351C94.4956 206.283 94.4984 206.209 94.5054 206.13C94.5502 205.624 94.642 204.913 94.8267 204.102C95.1977 202.472 95.9374 200.474 97.3999 198.893C98.9062 197.265 100.531 196.059 101.924 195.42C102.622 195.1 103.238 194.934 103.737 194.911Z" fill="#9EB8A8" stroke="#9EB8A8"/>
<path d="M84.092 213.636C85.5239 213.514 87.3785 213.725 89.3459 214.309L89.7405 214.43C91.7894 215.083 93.4162 216.457 94.5413 217.692C95.1013 218.307 95.5304 218.881 95.8186 219.3C95.8635 219.365 95.9018 219.428 95.9397 219.485C95.8757 219.51 95.8079 219.539 95.7336 219.566C95.2561 219.739 94.574 219.956 93.761 220.132C92.1273 220.485 90.0041 220.66 87.9543 220.007C85.8369 219.332 84.057 218.368 82.8899 217.375C82.3056 216.878 81.8949 216.39 81.6633 215.948C81.4329 215.508 81.3972 215.151 81.4885 214.867V214.866C81.5805 214.579 81.819 214.307 82.2629 214.083C82.7091 213.858 83.3276 213.701 84.092 213.636Z" fill="#9EB8A8" stroke="#9EB8A8"/>
<path d="M107.143 208.653C107.641 208.672 107.971 208.82 108.174 209.042C108.376 209.263 108.493 209.604 108.467 210.1C108.44 210.599 108.269 211.214 107.944 211.91C107.296 213.299 106.08 214.918 104.436 216.415C102.846 217.863 100.842 218.588 99.2097 218.948C98.3974 219.127 97.6868 219.214 97.1804 219.255C97.1012 219.262 97.0264 219.264 96.9578 219.268C96.9685 219.2 96.9782 219.127 96.9919 219.048C97.0798 218.547 97.2311 217.846 97.4841 217.053C97.9926 215.46 98.899 213.532 100.489 212.083H100.49C102.128 210.587 103.85 209.525 105.293 209.007C106.015 208.748 106.643 208.634 107.143 208.653Z" fill="#9EB8A8" stroke="#9EB8A8"/>
<path d="M49.1226 138.374C49.1226 138.374 71.4226 150.454 86.3026 184.194C101.183 217.934 98.3426 249.834 98.3426 249.834" stroke="#9EB8A8" stroke-width="1.2832" stroke-miterlimit="10"/>
<path d="M19.7119 173.521C19.7119 173.521 52.1898 179.482 73.8611 196.131C95.5324 212.78 91.3962 228.521 91.3962 228.521" stroke="#9EB8A8" stroke-width="1.2832" stroke-miterlimit="10"/>
<path d="M202.712 246.521C202.712 246.521 216.121 227.459 232.617 218.325C249.114 209.192 246.407 213.137 246.407 213.137" stroke="#9EB8A8" stroke-width="1.2832" stroke-miterlimit="10"/>
<path d="M196.712 197.114C196.712 197.114 204.075 164.925 221.647 143.996C239.22 123.066 239.712 141.682 239.712 141.682" stroke="#9EB8A8" stroke-width="1.2832" stroke-miterlimit="10"/>
<path d="M202.712 244.521C202.712 244.521 202.229 227.832 217.215 206.991C232.202 186.15 252.199 175.638 252.199 175.638" stroke="#7BA38B" stroke-width="1.2832" stroke-miterlimit="10"/>
<path d="M246.352 176.633C243.462 178.103 242.222 181.463 242.222 181.463C242.222 181.463 245.672 182.453 248.562 180.993C251.452 179.523 253.302 177.363 252.692 176.163C252.082 174.953 249.242 175.163 246.352 176.633Z" fill="#9EB8A8" fill-opacity="0.9"/>
<path d="M239.302 183.543C236.942 184.183 235.502 186.483 235.502 186.483C235.502 186.483 237.902 187.743 240.262 187.103C242.622 186.463 244.322 185.143 244.062 184.163C243.792 183.183 241.662 182.903 239.302 183.543Z" fill="#9EB8A8" fill-opacity="0.9"/>
<path d="M237.282 180.393C236.082 182.523 236.712 185.163 236.712 185.163C236.712 185.163 239.292 184.343 240.502 182.203C241.702 180.073 241.962 177.933 241.072 177.433C240.182 176.933 238.482 178.253 237.282 180.393Z" fill="#9EB8A8" fill-opacity="0.9"/>
<path d="M234.923 188.113C231.983 188.433 229.853 190.913 229.853 190.913C229.853 190.913 232.473 192.863 235.413 192.543C238.353 192.223 240.623 190.963 240.483 189.743C240.343 188.523 237.853 187.793 234.923 188.113Z" fill="#9EB8A8" fill-opacity="0.9"/>
<path d="M230.262 184.533C229.102 187.253 230.222 190.333 230.222 190.333C230.222 190.333 233.212 189.003 234.372 186.283C235.532 183.563 235.552 180.973 234.412 180.483C233.272 180.003 231.422 181.823 230.262 184.533Z" fill="#9EB8A8" fill-opacity="0.9"/>
<path d="M231.492 193.693C228.562 193.333 225.912 195.253 225.912 195.253C225.912 195.253 228.012 197.753 230.952 198.123C233.882 198.483 236.382 197.783 236.532 196.563C236.682 195.343 234.422 194.053 231.492 193.693Z" fill="#9EB8A8" fill-opacity="0.9"/>
<path d="M227.113 199.783C224.003 199.263 221.093 201.193 221.093 201.193C221.093 201.193 223.223 203.963 226.333 204.483C229.443 205.003 232.143 204.373 232.353 203.073C232.563 201.773 230.223 200.303 227.113 199.783Z" fill="#9EB8A8" fill-opacity="0.9"/>
<path d="M223.052 205.913C220.012 205.083 216.922 206.703 216.922 206.703C216.922 206.703 218.762 209.673 221.802 210.503C224.842 211.333 227.592 210.983 227.932 209.713C228.282 208.453 226.102 206.753 223.052 205.913Z" fill="#9EB8A8" fill-opacity="0.9"/>
<path d="M218.462 212.903C215.322 212.583 212.542 214.683 212.542 214.683C212.542 214.683 214.842 217.313 217.982 217.633C221.122 217.953 223.772 217.153 223.902 215.853C224.032 214.543 221.602 213.223 218.462 212.903Z" fill="#9EB8A8" fill-opacity="0.9"/>
<path d="M226.833 189.283C227.663 192.113 226.203 195.043 226.203 195.043C226.203 195.043 223.393 193.373 222.553 190.543C221.723 187.713 222.003 185.133 223.183 184.783C224.363 184.433 226.003 186.453 226.833 189.283Z" fill="#9EB8A8" fill-opacity="0.9"/>
<path d="M220.642 195.103C222.102 197.893 221.182 201.263 221.182 201.263C221.182 201.263 217.892 200.103 216.422 197.313C214.962 194.523 214.712 191.763 215.882 191.153C217.052 190.543 219.182 192.313 220.642 195.103Z" fill="#9EB8A8" fill-opacity="0.9"/>
<path d="M216.082 200.863C217.822 203.493 217.252 206.933 217.252 206.933C217.252 206.933 213.862 206.113 212.122 203.483C210.382 200.853 209.862 198.133 210.952 197.413C212.042 196.693 214.342 198.233 216.082 200.863Z" fill="#9EB8A8" fill-opacity="0.9"/>
<path d="M212.572 208.633C213.852 211.513 212.722 214.813 212.722 214.813C212.722 214.813 209.512 213.443 208.222 210.563C206.942 207.683 206.872 204.913 208.072 204.383C209.272 203.853 211.282 205.753 212.572 208.633Z" fill="#9EB8A8" fill-opacity="0.9"/>
<path d="M214.362 220.313C211.222 220.643 208.932 223.283 208.932 223.283C208.932 223.283 211.722 225.383 214.862 225.053C218.002 224.723 220.432 223.393 220.292 222.083C220.152 220.773 217.492 219.983 214.362 220.313Z" fill="#9EB8A8" fill-opacity="0.9"/>
<path d="M207.712 217.353C209.562 219.903 209.132 223.373 209.132 223.373C209.132 223.373 205.702 222.703 203.852 220.143C202.002 217.593 201.362 214.893 202.432 214.123C203.502 213.353 205.862 214.803 207.712 217.353Z" fill="#9EB8A8" fill-opacity="0.9"/>
<path d="M209.872 228.761C206.772 229.361 204.712 232.181 204.712 232.181C204.712 232.181 207.672 234.031 210.772 233.431C213.872 232.831 216.172 231.301 215.932 230.011C215.682 228.721 212.972 228.161 209.872 228.761Z" fill="#9EB8A8" fill-opacity="0.9"/>
<path d="M203.996 226.587C205.826 228.999 205.711 232.521 205.711 232.521C205.711 232.521 202.627 232.137 200.796 229.725C198.966 227.314 198.192 224.66 199.081 223.792C199.961 222.934 202.165 224.175 203.996 226.587Z" fill="#9EB8A8" fill-opacity="0.9"/>
<path d="M218.531 132.61C223.573 131.136 228.937 131.284 233.077 133.053C237.194 134.812 240.094 138.165 240.335 143.168C240.579 148.215 238.123 155.04 231.25 163.702V163.703C220.119 177.741 201.226 193.187 196.973 232.219C196.572 230.746 196.038 228.651 195.476 226.038C194.302 220.582 192.998 212.87 192.478 203.854C191.437 185.817 193.538 162.603 206.051 141.781C208.829 137.163 213.492 134.084 218.531 132.61Z" fill="#9EB8A8" fill-opacity="0.9" stroke="#9EB8A8"/>
<path d="M205.663 243.853C205.663 243.853 213.413 219.003 234.953 209.593C244.723 205.323 259.433 219.703 238.893 225.663C230.423 228.123 218.463 228.883 205.663 243.853Z" fill="#9EB8A8" fill-opacity="0.9"/>
<path d="M183.583 54.7835L183.473 48.8635C183.453 47.9135 183.033 47.0135 182.323 46.3735C181.173 45.3435 179.753 43.5035 180.083 43.0735C180.693 42.2735 182.703 45.1935 183.513 44.5935C183.753 44.4135 182.373 36.4435 183.193 36.4935C183.833 36.5335 184.083 41.0235 184.363 40.9935C184.643 40.9635 184.573 33.5635 185.163 33.6135C185.733 33.6735 185.933 40.4035 186.323 40.1635C186.893 39.8035 186.303 34.2435 187.253 33.9735C187.883 33.7935 187.793 41.0535 188.143 41.1735C188.583 41.3335 188.773 36.4835 189.323 36.6735C190.083 36.9435 188.943 45.1935 188.943 45.1935L187.503 55.6735L183.583 54.7835Z" fill="#FFB49B"/>
<path d="M97.7527 81.1736L93.7627 76.7936C93.1227 76.0836 92.8127 75.1436 92.8827 74.1936C93.0027 72.6536 92.7727 70.3436 92.2327 70.2536C91.2427 70.0936 91.7827 73.5936 90.7927 73.7136C90.4927 73.7536 86.0127 67.0136 85.4527 67.6136C85.0127 68.0836 87.9227 71.5136 87.6927 71.6836C87.4627 71.8536 82.4327 66.4336 82.0427 66.8736C81.6727 67.3036 86.1527 72.3336 85.7027 72.4236C85.0427 72.5536 81.6427 68.1136 80.7727 68.5736C80.1927 68.8836 85.2527 74.0836 85.0727 74.4136C84.8627 74.8336 81.3827 71.4436 81.1227 71.9536C80.7527 72.6636 87.2627 77.8736 87.2627 77.8736L95.5127 84.4936L97.7527 81.1736Z" fill="#FFB49B"/>
<path d="M152.663 65.9436C150.783 58.1436 143.773 52.3336 135.383 52.3336C134.663 52.3336 133.953 52.3736 133.253 52.4636C129.963 52.8736 126.643 52.9936 123.353 52.5536C121.903 52.3536 120.273 52.1436 118.603 51.9236C110.633 50.8836 104.233 58.5136 106.753 66.1536C106.783 66.2436 106.813 66.3436 106.843 66.4336C108.263 70.5936 108.933 74.9436 108.993 79.3436C108.993 79.7136 109.013 80.0836 109.043 80.4536C109.653 88.7636 116.183 95.6636 124.443 96.7436C125.503 96.8836 126.543 96.9236 127.563 96.8836C132.323 96.6736 137.073 97.3236 141.473 99.1536C143.363 99.9436 145.313 100.534 146.873 100.534C156.693 100.534 164.663 92.5736 164.663 82.7436C164.673 74.9536 159.653 68.3436 152.663 65.9436Z" fill="#AFF4B9"/>
<path d="M194.073 63.8336C194.073 63.8336 191.313 91.3636 187.103 99.3836C183.783 105.714 167.113 119.864 167.113 119.864C164.783 122.254 160.893 122.114 158.733 119.564C157.183 117.724 156.953 115.104 158.173 113.034C158.173 113.034 173.363 96.6436 175.623 89.7236C177.763 83.1636 175.283 62.1236 175.283 62.1236C175.203 56.0036 180.853 51.4236 186.823 52.7536C191.853 53.8736 195.063 58.7936 194.073 63.8336Z" fill="white"/>
<path d="M173.763 218.274C170.663 217.244 170.083 219.414 169.043 223.274C168.003 227.134 167.813 230.044 168.803 230.314C169.733 230.564 171.053 229.204 173.273 225.884C175.953 221.894 175.783 218.944 173.763 218.274Z" fill="#41378C"/>
<path d="M176.133 214.404L173.123 218.574C172.163 219.884 172.203 220.824 172.793 221.414C173.393 222.004 174.343 222.024 174.973 221.454L179.963 217.274L176.133 214.404Z" fill="#FFB49B"/>
<path d="M165.103 143.074C149.963 149.034 154.153 169.544 161.283 173.774C171.883 180.064 193.043 177.424 193.053 179.064C193.123 185.974 174.673 214.974 174.673 214.974C174.523 215.254 174.553 215.604 174.753 215.834C175.833 217.054 176.543 217.854 178.483 219.094C178.713 219.244 179.023 219.114 179.223 218.934C189.563 209.304 210.543 185.534 213.013 175.284C217.133 158.194 167.933 141.964 165.103 143.074Z" fill="#3FB96F"/>
<path d="M90.9826 207.414C89.6526 204.434 87.6626 205.464 84.1126 207.304C80.5626 209.134 78.2826 210.964 78.7526 211.884C79.1926 212.734 81.0926 212.794 85.0426 212.194C89.7826 211.474 91.8426 209.354 90.9826 207.414Z" fill="#41378C"/>
<path d="M95.4325 206.543L90.3225 207.133C88.7125 207.303 88.0325 207.973 88.0025 208.803C87.9725 209.643 88.6025 210.363 89.4325 210.443L95.8925 211.313L95.4325 206.543Z" fill="#FFB49B"/>
<path d="M166.083 145.484C162.983 142.284 148.273 144.824 148.273 144.824C133.043 150.534 133.803 163.814 135.493 171.934C138.003 184.004 134.143 194.084 132.943 195.204C127.893 199.914 94.0426 205.864 94.0426 205.864C93.7326 205.944 93.4926 206.194 93.4626 206.504C93.2926 208.114 93.1826 209.194 93.5726 211.454C93.6226 211.724 93.9226 211.864 94.1926 211.884C108.273 213.024 136.623 215.494 145.653 210.074C166.333 197.654 177.863 157.654 166.083 145.484Z" fill="#38E07A"/>
<path d="M166.003 151.284C170.753 150.684 174.723 147.354 176.103 142.774C178.173 135.894 181.003 124.674 179.713 118.254C178.513 112.254 173.873 101.134 162.233 101.134C154.473 101.134 138.813 103.434 139.833 115.344C140.473 122.764 141.743 136.734 147.573 146.084C148.663 147.834 150.333 149.164 152.293 149.804C155.343 150.784 160.453 151.984 166.003 151.284Z" fill="white"/>
<path d="M160.863 107.594C158.613 107.594 156.793 105.774 156.793 103.524V90.0837H164.933V103.514C164.933 105.774 163.113 107.594 160.863 107.594Z" fill="#FFA587"/>
<path d="M164.123 100.544C164.403 100.544 164.673 100.514 164.933 100.474V90.0837H156.793V91.6037C156.793 95.6537 160.073 100.544 164.123 100.544Z" fill="#F5876E"/>
<path d="M165.963 97.7336C162.633 99.0036 156.633 96.6936 155.353 93.3636C155.353 93.3636 152.573 88.3236 152.723 86.4936C153.413 78.0236 161.483 79.6636 164.433 80.9836C166.113 81.7336 166.933 86.9836 167.403 88.7536C168.323 92.1936 167.413 97.1736 165.963 97.7336Z" fill="#FFB49B"/>
<path d="M151.663 91.2137C152.233 92.7037 153.883 93.4537 155.353 92.8937L153.293 87.5037C151.823 88.0737 151.093 89.7337 151.663 91.2137Z" fill="#FFA587"/>
<path d="M164.433 80.9736L154.273 84.8636L155.123 87.0936C154.113 87.5436 153.613 88.7236 154.023 89.7836C154.133 90.0636 154.283 90.2936 154.473 90.4936C154.693 90.3036 154.883 90.0936 155.033 89.8536C155.363 89.3536 155.853 89.0036 156.403 88.7836C157.613 88.3136 158.583 87.4536 159.203 86.3836C160.073 84.8936 161.503 83.7636 163.183 83.4136C163.543 83.3436 163.893 83.2336 164.243 83.1036C164.533 82.9936 164.833 82.8436 165.093 82.7036L164.433 80.9736Z" fill="#FFA587"/>
<path d="M157.623 67.4138C155.443 68.3238 153.873 70.0938 153.153 72.1738C152.393 74.3538 150.763 76.0638 148.803 77.2938C148.783 77.3038 148.753 77.3238 148.733 77.3338C146.573 78.7238 145.423 81.3438 145.893 83.8738C145.953 84.2038 146.043 84.5338 146.143 84.8338C146.493 85.8538 146.693 86.9438 146.553 88.0138C146.493 88.5138 146.543 89.0238 146.733 89.5238C147.393 91.2538 149.423 92.0738 151.263 91.3738C152.023 91.0838 152.633 90.5738 153.043 89.9538C153.413 89.3838 153.973 88.9838 154.613 88.7338C155.993 88.1938 157.093 87.2238 157.803 86.0038C158.793 84.3038 160.423 83.0238 162.343 82.6138C162.753 82.5238 163.153 82.4138 163.553 82.2538C167.743 80.6538 169.813 75.8938 168.073 71.7238C166.453 67.8238 161.533 65.7938 157.623 67.4138Z" fill="#AFF4B9"/>
<path d="M92.9225 91.2736C92.9225 91.2736 111.053 108.114 119.273 111.624C125.213 114.164 148.303 116.604 148.303 116.604C151.233 117.354 154.243 115.414 154.793 112.424C155.193 110.274 154.183 108.144 152.283 107.124C152.283 107.124 131.783 103.814 126.103 100.554C120.353 97.2536 107.003 81.1136 107.003 81.1136C101.823 76.1336 97.7625 75.4836 93.6425 79.3236C90.1725 82.5436 88.7725 88.7036 92.9225 91.2736Z" fill="white"/>
</svg>
